<?xml version="1.0" encoding="utf-8"?>
<!-- Generator: Adobe Illustrator 22.1.0, SVG Export Plug-In . SVG Version: 6.00 Build 0)  -->
<svg version="1.1" id="RZ" xmlns="http://www.w3.org/2000/svg" xmlns:xlink="http://www.w3.org/1999/xlink" x="0px" y="0px"
	 viewBox="0 0 683.1 1133.9" style="enable-background:new 0 0 683.1 1133.9;" xml:space="preserve">
<style type="text/css">
	.st0{fill:#FFFFFF;}
</style>
<g>
	<g>
		<path class="st0" d="M604.9,1090c8.1,20.6,22.3,34.2,38.6,34.2c17,0,31.9-15.1,39.7-37.4L604.9,1090z"/>
		<path class="st0" d="M673.4,1018.6l-7.8-35.3l0,0l-68-309.1l-71.6,25.9L622,985.6c-8.3,7.3-15,18.8-19.1,32.5L673.4,1018.6z"/>
		<path class="st0" d="M22,1012.5c-12.6,0-22,24.1-22,54.1c0,30.1,9.4,54.1,22,54.1c14.1,0,22-24.1,22-54.1
			C44,1036.6,36.1,1012.5,22,1012.5z"/>
		<path class="st0" d="M70.9,1042.6c1.3,7.3,1.9,15.5,1.9,24.2c0,11.2-1.1,21.6-3.1,30.2h173.1c7.3,22.2,19.9,36.9,34.3,36.9
			c22.6,0,40.9-36.2,40.9-81c0-44.7-18.3-81-40.9-81c-16.2,0-30.2,18.8-36.8,45.9l-153.6,19.7l79.5-298l143.7-65.4L331,973
			c16.2,12.5,27.6,43.5,27.6,79.9c0,16.2-2.3,31.2-6.2,44.1h15.2v0h18V363.5l47,17.2l12.7,93.2c14.4-137.5,32-190.3,69.3-258.4
			l67.4,71.4l34.4-27.8L564.9,59.5L593.9,0C434,104.4,356.1,239.2,300.5,419l-142.7,97.8L49.2,1012.5c0.5,0,0.9,0,1.3,0
			c9.2,0,15.7,9.1,19.2,24.4L70.9,1042.6z"/>
		<path class="st0" d="M653,37.6c0,0-15.6,7.5-47.3,32.6l21.9,10.4L653,37.6z"/>
	</g>
</g>
</svg>
